# xmcd CD database file
#
# Track frame offsets:
#	150
#	18725
#	27482
#	39417
#	54002
#	64195
#	74607
#	86190
#	100862
#	113597
#	127122
#	139850
#	150315
#	163830
#	174340
#	187595
#
# Disc length: 2680 seconds
#
# Revision: 0
# Processed by: cddbd v1.5.1PL0 Copyright (c) Steve Scherf et al.
# Submitted via: CDex 1.50beta9
#
DISCID=d20a7610
DTITLE=Greta Elkin - Country Memories.
DYEAR=1900
DGENRE=Country
TTITLE0=Country Memories.
TTITLE1=I Wanna Be A Cowboys Sweetheart.
TTITLE2=Honkytonkitis
TTITLE3=Fly Away Mockin Bird.
TTITLE4=Maried By The Bible.
TTITLE5=Cattle Call.
TTITLE6=Someday You Ll Call My Name.
TTITLE7=Down The Trails Of Achin Hearts.
TTITLE8=He Taught Me To Forget.
TTITLE9=Castle In The Sky.
TTITLE10=Rockin Alone In An Old Rockin Chair.
TTITLE11=Smoking Cigarettes And Drikin Coffe Blues.
TTITLE12=Just Out Of Reach.
TTITLE13=Sunny South By The Sea.
TTITLE14=Wonderful City Of Light.
TTITLE15=A Good Old Country Song.
EXTD=
EXTT0=
EXTT1=
EXTT2=
EXTT3=
EXTT4=
EXTT5=
EXTT6=
EXTT7=
EXTT8=
EXTT9=
EXTT10=
EXTT11=
EXTT12=
EXTT13=
EXTT14=
EXTT15=
PLAYORDER=
